# Blender v2.80 (sub 41) OBJ File: 'bullet.blend'
# www.blender.org
o Cone
v 0.100000 1.095516 0.033295
v 0.098079 1.076007 0.033295
v 0.092388 1.057248 0.033295
v 0.083147 1.039959 0.033295
v 0.070711 1.024806 0.033295
v 0.055557 1.012369 0.033295
v 0.038268 1.003128 0.033295
v 0.019509 0.997438 0.033295
v 0.000000 0.995516 0.033295
v -0.019509 0.997438 0.033295
v -0.038268 1.003128 0.033295
v -0.055557 1.012369 0.033295
v -0.070711 1.024806 0.033295
v -0.083147 1.039959 0.033295
v -0.092388 1.057248 0.033295
v -0.098079 1.076007 0.033295
v -0.100000 1.095516 0.033295
v -0.098079 1.115025 0.033295
v -0.092388 1.133785 0.033295
v -0.083147 1.151073 0.033295
v -0.070711 1.166227 0.033295
v -0.055557 1.178663 0.033295
v -0.038268 1.187904 0.033295
v 0.000000 1.095516 0.233295
v -0.019509 1.193595 0.033295
v 0.000000 1.195516 0.033295
v 0.019509 1.193595 0.033295
v 0.038268 1.187904 0.033295
v 0.055557 1.178663 0.033295
v 0.070711 1.166227 0.033295
v 0.083147 1.151073 0.033295
v 0.092388 1.133784 0.033295
v 0.098079 1.115025 0.033295
v 0.100000 1.095516 -0.784723
v 0.098078 1.076007 -0.784723
v 0.092388 1.057248 -0.784723
v 0.083147 1.039959 -0.784723
v 0.070711 1.024805 -0.784723
v 0.055557 1.012369 -0.784723
v 0.038268 1.003128 -0.784723
v 0.019509 0.997438 -0.784723
v -0.000000 0.995516 -0.784723
v -0.019509 0.997438 -0.784723
v -0.038268 1.003128 -0.784723
v -0.055557 1.012369 -0.784723
v -0.070711 1.024805 -0.784723
v -0.083147 1.039959 -0.784723
v -0.092388 1.057248 -0.784723
v -0.098079 1.076007 -0.784723
v -0.100000 1.095516 -0.784723
v -0.098079 1.115025 -0.784723
v -0.092388 1.133785 -0.784723
v -0.083147 1.151073 -0.784723
v -0.070711 1.166227 -0.784723
v -0.055557 1.178663 -0.784723
v -0.038268 1.187904 -0.784723
v -0.019509 1.193595 -0.784723
v 0.000000 1.195516 -0.784723
v 0.019509 1.193595 -0.784723
v 0.038268 1.187904 -0.784723
v 0.055557 1.178663 -0.784723
v 0.070711 1.166227 -0.784723
v 0.083147 1.151073 -0.784723
v 0.092388 1.133784 -0.784723
v 0.098079 1.115025 -0.784723
vn 0.8910 -0.0878 0.4455
vn 0.8567 -0.2599 0.4455
vn 0.7896 -0.4220 0.4455
vn 0.6921 -0.5680 0.4455
vn 0.5680 -0.6921 0.4455
vn 0.4220 -0.7896 0.4455
vn 0.2599 -0.8567 0.4455
vn 0.0878 -0.8910 0.4455
vn -0.0878 -0.8910 0.4455
vn -0.2599 -0.8567 0.4455
vn -0.4220 -0.7896 0.4455
vn -0.5680 -0.6921 0.4455
vn -0.6921 -0.5680 0.4455
vn -0.7896 -0.4220 0.4455
vn -0.8567 -0.2599 0.4455
vn -0.8910 -0.0878 0.4455
vn -0.8910 0.0878 0.4455
vn -0.8567 0.2599 0.4455
vn -0.7896 0.4220 0.4455
vn -0.6921 0.5680 0.4455
vn -0.5680 0.6921 0.4455
vn -0.4220 0.7896 0.4455
vn -0.2599 0.8567 0.4455
vn -0.0878 0.8910 0.4455
vn 0.0878 0.8910 0.4455
vn 0.2599 0.8567 0.4455
vn 0.4220 0.7896 0.4455
vn 0.5680 0.6921 0.4455
vn 0.6921 0.5680 0.4455
vn 0.7896 0.4220 0.4455
vn 0.8567 0.2599 0.4455
vn 0.8910 0.0878 0.4455
vn 0.9952 0.0980 -0.0000
vn 0.0000 0.0000 -1.0000
vn -0.6344 -0.7730 0.0000
vn 0.0980 0.9952 0.0000
vn -0.8819 0.4714 0.0000
vn 0.4714 -0.8819 0.0000
vn -0.7730 -0.6344 0.0000
vn 0.2903 0.9569 0.0000
vn -0.7730 0.6344 0.0000
vn 0.2903 -0.9569 0.0000
vn 0.9952 -0.0980 -0.0000
vn -0.8819 -0.4714 0.0000
vn 0.4714 0.8819 0.0000
vn -0.6344 0.7730 0.0000
vn 0.0980 -0.9952 0.0000
vn -0.9569 -0.2903 0.0000
vn 0.6344 0.7730 -0.0000
vn -0.4714 0.8819 -0.0000
vn 0.9569 -0.2903 -0.0000
vn -0.0980 -0.9952 -0.0000
vn -0.9952 -0.0980 0.0000
vn 0.7730 0.6344 -0.0000
vn 0.8819 -0.4714 -0.0000
vn -0.2903 -0.9569 0.0000
vn -0.2903 0.9569 -0.0000
vn -0.9952 0.0980 0.0000
vn 0.8819 0.4714 -0.0000
vn 0.7730 -0.6344 -0.0000
vn -0.4714 -0.8819 -0.0000
vn -0.0980 0.9952 0.0000
vn -0.9569 0.2903 0.0000
vn 0.9569 0.2903 -0.0000
vn 0.6344 -0.7730 -0.0000
s off
f 1//1 24//1 2//1
f 2//2 24//2 3//2
f 3//3 24//3 4//3
f 4//4 24//4 5//4
f 5//5 24//5 6//5
f 6//6 24//6 7//6
f 7//7 24//7 8//7
f 8//8 24//8 9//8
f 9//9 24//9 10//9
f 10//10 24//10 11//10
f 11//11 24//11 12//11
f 12//12 24//12 13//12
f 13//13 24//13 14//13
f 14//14 24//14 15//14
f 15//15 24//15 16//15
f 16//16 24//16 17//16
f 17//17 24//17 18//17
f 18//18 24//18 19//18
f 19//19 24//19 20//19
f 20//20 24//20 21//20
f 21//21 24//21 22//21
f 22//22 24//22 23//22
f 23//23 24//23 25//23
f 25//24 24//24 26//24
f 26//25 24//25 27//25
f 27//26 24//26 28//26
f 28//27 24//27 29//27
f 29//28 24//28 30//28
f 30//29 24//29 31//29
f 31//30 24//30 32//30
f 32//31 24//31 33//31
f 33//32 24//32 1//32
f 1//33 65//33 33//33
f 49//34 57//34 65//34
f 13//35 45//35 12//35
f 27//36 58//36 26//36
f 20//37 52//37 19//37
f 7//38 39//38 6//38
f 13//39 47//39 46//39
f 28//40 59//40 27//40
f 20//41 54//41 53//41
f 8//42 40//42 7//42
f 2//43 34//43 1//43
f 14//44 48//44 47//44
f 28//45 61//45 60//45
f 22//46 54//46 21//46
f 9//47 41//47 8//47
f 16//48 48//48 15//48
f 30//49 61//49 29//49
f 23//50 55//50 22//50
f 3//51 35//51 2//51
f 10//52 42//52 9//52
f 16//53 50//53 49//53
f 31//54 62//54 30//54
f 4//55 36//55 3//55
f 11//56 43//56 10//56
f 25//57 56//57 23//57
f 18//58 50//58 17//58
f 32//59 63//59 31//59
f 5//60 37//60 4//60
f 12//61 44//61 11//61
f 26//62 57//62 25//62
f 19//63 51//63 18//63
f 33//64 64//64 32//64
f 6//65 38//65 5//65
f 1//33 34//33 65//33
f 65//34 34//34 35//34
f 35//34 36//34 37//34
f 37//34 38//34 39//34
f 39//34 40//34 41//34
f 41//34 42//34 43//34
f 43//34 44//34 45//34
f 45//34 46//34 47//34
f 47//34 48//34 49//34
f 49//34 50//34 51//34
f 51//34 52//34 53//34
f 53//34 54//34 55//34
f 55//34 56//34 57//34
f 57//34 58//34 59//34
f 59//34 60//34 61//34
f 61//34 62//34 63//34
f 63//34 64//34 65//34
f 65//34 35//34 37//34
f 37//34 39//34 41//34
f 41//34 43//34 45//34
f 45//34 47//34 49//34
f 49//34 51//34 53//34
f 53//34 55//34 57//34
f 57//34 59//34 61//34
f 61//34 63//34 65//34
f 65//34 37//34 41//34
f 41//34 45//34 49//34
f 49//34 53//34 57//34
f 57//34 61//34 65//34
f 65//34 41//34 49//34
f 13//35 46//35 45//35
f 27//36 59//36 58//36
f 20//37 53//37 52//37
f 7//38 40//38 39//38
f 13//39 14//39 47//39
f 28//40 60//40 59//40
f 20//41 21//41 54//41
f 8//42 41//42 40//42
f 2//43 35//43 34//43
f 14//44 15//44 48//44
f 28//45 29//45 61//45
f 22//46 55//46 54//46
f 9//47 42//47 41//47
f 16//48 49//48 48//48
f 30//49 62//49 61//49
f 23//50 56//50 55//50
f 3//51 36//51 35//51
f 10//52 43//52 42//52
f 16//53 17//53 50//53
f 31//54 63//54 62//54
f 4//55 37//55 36//55
f 11//56 44//56 43//56
f 25//57 57//57 56//57
f 18//58 51//58 50//58
f 32//59 64//59 63//59
f 5//60 38//60 37//60
f 12//61 45//61 44//61
f 26//62 58//62 57//62
f 19//63 52//63 51//63
f 33//64 65//64 64//64
f 6//65 39//65 38//65
